<svg id="visual" viewBox="0 0 960 540" width="960" height="540" xmlns="http://www.w3.org/2000/svg" xmlns:xlink="http://www.w3.org/1999/xlink" version="1.1"><rect x="0" y="0" width="960" height="540" fill="#001220"></rect><path d="M0 336L22.8 337.5C45.7 339 91.3 342 137 348.8C182.7 355.7 228.3 366.3 274 361.3C319.7 356.3 365.3 335.7 411.2 325.3C457 315 503 315 548.8 328C594.7 341 640.3 367 686 373C731.7 379 777.3 365 823 365C868.7 365 914.3 379 937.2 386L960 393L960 541L937.2 541C914.3 541 868.7 541 823 541C777.3 541 731.7 541 686 541C640.3 541 594.7 541 548.8 541C503 541 457 541 411.2 541C365.3 541 319.7 541 274 541C228.3 541 182.7 541 137 541C91.3 541 45.7 541 22.8 541L0 541Z" fill="#4facf7"></path><path d="M0 388L22.8 395.2C45.7 402.3 91.3 416.7 137 423.2C182.7 429.7 228.3 428.3 274 425.3C319.7 422.3 365.3 417.7 411.2 410.8C457 404 503 395 548.8 398.2C594.7 401.3 640.3 416.7 686 422C731.7 427.3 777.3 422.7 823 421.8C868.7 421 914.3 424 937.2 425.5L960 427L960 541L937.2 541C914.3 541 868.7 541 823 541C777.3 541 731.7 541 686 541C640.3 541 594.7 541 548.8 541C503 541 457 541 411.2 541C365.3 541 319.7 541 274 541C228.3 541 182.7 541 137 541C91.3 541 45.7 541 22.8 541L0 541Z" fill="#2b9dfc"></path><path d="M0 394L22.8 400.2C45.7 406.3 91.3 418.7 137 424.3C182.7 430 228.3 429 274 426.7C319.7 424.3 365.3 420.7 411.2 425.3C457 430 503 443 548.8 443C594.7 443 640.3 430 686 430.7C731.7 431.3 777.3 445.7 823 448.7C868.7 451.7 914.3 443.3 937.2 439.2L960 435L960 541L937.2 541C914.3 541 868.7 541 823 541C777.3 541 731.7 541 686 541C640.3 541 594.7 541 548.8 541C503 541 457 541 411.2 541C365.3 541 319.7 541 274 541C228.3 541 182.7 541 137 541C91.3 541 45.7 541 22.8 541L0 541Z" fill="#008cff"></path><path d="M0 444L22.8 448.2C45.7 452.3 91.3 460.7 137 463.2C182.7 465.7 228.3 462.3 274 464.3C319.7 466.3 365.3 473.7 411.2 469.8C457 466 503 451 548.8 450.5C594.7 450 640.3 464 686 469.3C731.7 474.7 777.3 471.3 823 471.2C868.7 471 914.3 474 937.2 475.5L960 477L960 541L937.2 541C914.3 541 868.7 541 823 541C777.3 541 731.7 541 686 541C640.3 541 594.7 541 548.8 541C503 541 457 541 411.2 541C365.3 541 319.7 541 274 541C228.3 541 182.7 541 137 541C91.3 541 45.7 541 22.8 541L0 541Z" fill="#007aff"></path><path d="M0 513L22.8 508.5C45.7 504 91.3 495 137 490.8C182.7 486.7 228.3 487.3 274 491.5C319.7 495.7 365.3 503.3 411.2 502.8C457 502.3 503 493.7 548.8 490.3C594.7 487 640.3 489 686 486.8C731.7 484.7 777.3 478.3 823 476.7C868.7 475 914.3 478 937.2 479.5L960 481L960 541L937.2 541C914.3 541 868.7 541 823 541C777.3 541 731.7 541 686 541C640.3 541 594.7 541 548.8 541C503 541 457 541 411.2 541C365.3 541 319.7 541 274 541C228.3 541 182.7 541 137 541C91.3 541 45.7 541 22.8 541L0 541Z" fill="#0066ff"></path></svg>