<svg xmlns="http://www.w3.org/2000/svg" viewBox="0 0 171 171" fill="none">
  <path d="M158.5.5h-146C5.873.5.5 5.873.5 12.5v146c0 6.627 5.373 12 12 12h146c6.627 0 12-5.373 12-12v-146c0-6.627-5.373-12-12-12Z" fill="color" />
  <path d="M128.233 61.415 43.125 95.043l4.932 12.481 85.107-33.628-4.931-12.48Z" fill="#fff"/>
  <path d="m36.096 75.506-16.704 6.6a2 2 0 0 0-1.125 2.595l18.708 47.348a2 2 0 0 0 2.595 1.125l16.704-6.6a2 2 0 0 0 1.125-2.595L38.69 76.631a2 2 0 0 0-2.595-1.125Zm95.328-37.662-16.704 6.6a2 2 0 0 0-1.125 2.594l18.708 47.349a2 2 0 0 0 2.595 1.125l16.704-6.6a2 2 0 0 0 1.125-2.595l-18.708-47.348a2 2 0 0 0-2.595-1.125Z" fill="#fff"/>
</svg>

