<?xml version="1.0" standalone="no"?>
<!DOCTYPE svg PUBLIC "-//W3C//DTD SVG 20010904//EN"
 "http://www.w3.org/TR/2001/REC-SVG-20010904/DTD/svg10.dtd">
<svg version="1.0" xmlns="http://www.w3.org/2000/svg"
 width="700.000000pt" height="700.000000pt" viewBox="0 0 700.000000 700.000000"
 preserveAspectRatio="xMidYMid meet">
<metadata>
Created by potrace 1.14, written by Peter Selinger 2001-2017
</metadata>
<g transform="translate(0.000000,700.000000) scale(0.100000,-0.100000)"
fill="#000000" stroke="none">
<path d="M5390 5453 c-15 -4 -80 -29 -115 -44 -11 -5 -90 -36 -175 -69 -85
-33 -164 -65 -175 -69 -11 -5 -47 -19 -80 -32 -33 -12 -64 -25 -70 -29 -5 -3
-29 -12 -52 -20 -52 -16 -75 -40 -76 -77 -1 -22 113 -329 188 -508 54 -127 94
-240 88 -245 -10 -8 -34 -18 -398 -160 -170 -67 -323 -128 -340 -135 -16 -7
-113 -45 -215 -85 -102 -40 -198 -78 -215 -85 -16 -7 -91 -36 -165 -65 -74
-28 -144 -56 -155 -61 -18 -8 -532 -211 -845 -334 -74 -29 -267 -105 -428
-169 -162 -64 -295 -116 -298 -116 -2 0 -4 5 -4 11 0 6 -7 25 -14 42 -8 18
-63 154 -121 302 -144 368 -146 373 -167 392 -10 9 -31 16 -46 15 -26 0 -575
-211 -700 -268 -60 -27 -78 -57 -63 -108 5 -17 61 -161 124 -321 63 -159 174
-441 247 -625 287 -727 382 -966 396 -997 19 -39 58 -56 99 -44 17 5 129 48
250 96 512 201 483 187 487 240 1 17 -20 86 -49 160 -29 72 -93 233 -142 359
-50 126 -91 230 -91 231 0 5 78 36 890 355 184 72 344 135 355 140 11 5 130
53 265 106 135 53 342 134 460 181 118 47 301 119 405 159 105 41 199 79 210
84 11 5 119 48 240 96 121 47 226 88 233 91 6 3 12 0 12 -7 0 -7 6 -26 14 -43
14 -31 175 -438 236 -595 41 -105 66 -126 132 -109 28 7 590 227 645 253 17 8
35 14 40 14 20 0 47 42 47 73 0 26 -100 298 -159 432 -19 44 -125 315 -125
321 0 2 -9 23 -19 47 -25 54 -231 576 -231 583 0 3 -7 20 -15 37 -8 18 -58
142 -110 277 -53 135 -103 259 -112 277 -17 37 -57 56 -93 46z"/>
</g>
</svg>
